<svg width="40" height="560" fill="none" xmlns="http://www.w3.org/2000/svg"><defs><symbol id="icon"><path d="M3.00391 20C3.00391 22.1006 3.38477 24.1118 4.08105 25.9688L3.14453 26.3203C2.79785 25.3965 2.52539 24.437 2.33398 23.4487C2.11719 22.3325 2.00391 21.1797 2.00391 20C2.00391 10.0586 10.0625 2 20.0039 2C25.1143 2 29.7275 4.12988 33.0039 7.5498V3H34.0039V9H28.0039V8H32.0459C28.9678 4.91113 24.709 3 20.0039 3C10.6152 3 3.00391 10.6113 3.00391 20Z" fill="var(--icon-color, currentColor)"/><path d="M37.0039 20C37.0039 17.8984 36.6221 15.8857 35.9248 14.0273L36.8623 13.6763C37.6006 15.6436 38.0039 17.7744 38.0039 20C38.0039 29.9414 29.9453 38 20.0039 38C14.8936 38 10.2803 35.8701 7.00391 32.4502V37H6.00391V31H12.0039V32H7.96191C11.04 35.0889 15.2988 37 20.0039 37C29.3926 37 37.0039 29.3887 37.0039 20Z" fill="var(--icon-color, currentColor)"/><path fill-rule="evenodd" clip-rule="evenodd" d="M25.999 17V23L31.999 26V14L25.999 17ZM26.999 17.6182V22.3818L30.999 24.3818V15.6182L26.999 17.6182Z" fill="var(--icon-color, currentColor)"/><path fill-rule="evenodd" clip-rule="evenodd" d="M9.99902 16C9.99902 14.3433 11.3418 13 12.999 13H20.999C22.6562 13 23.999 14.3433 23.999 16V24C23.999 25.6567 22.6562 27 20.999 27H12.999C11.3418 27 9.99902 25.6567 9.99902 24V16ZM12.999 14H20.999C22.1035 14 22.999 14.8955 22.999 16V24C22.999 25.1045 22.1035 26 20.999 26H12.999C11.8945 26 10.999 25.1045 10.999 24V16C10.999 14.8955 11.8945 14 12.999 14Z" fill="var(--icon-color, currentColor)"/></symbol></defs><view viewBox="0 0 40 40" id="light-primary"/><use x="0" y="0" href="#icon" style="--icon-color:#141414"/><view viewBox="0 40 40 40" id="light-secondary"/><use x="0" y="40" href="#icon" style="--icon-color:#707070"/><view viewBox="0 80 40 40" id="light-inverted"/><use x="0" y="80" href="#icon" style="--icon-color:#ffffff"/><view viewBox="0 120 40 40" id="light-alert"/><use x="0" y="120" href="#icon" style="--icon-color:#bf2012"/><view viewBox="0 160 40 40" id="light-action"/><use x="0" y="160" href="#icon" style="--icon-color:#1c6bba"/><view viewBox="0 200 40 40" id="light-actionSecondary"/><use x="0" y="200" href="#icon" style="--icon-color:#1c6bba"/><view viewBox="0 240 40 40" id="light-positive"/><use x="0" y="240" href="#icon" style="--icon-color:#058a22"/><view viewBox="0 280 40 40" id="dark-primary"/><use x="0" y="280" href="#icon" style="--icon-color:#ffffff"/><view viewBox="0 320 40 40" id="dark-secondary"/><use x="0" y="320" href="#icon" style="--icon-color:#a3a3a3"/><view viewBox="0 360 40 40" id="dark-inverted"/><use x="0" y="360" href="#icon" style="--icon-color:#000000"/><view viewBox="0 400 40 40" id="dark-alert"/><use x="0" y="400" href="#icon" style="--icon-color:#ea2c1a"/><view viewBox="0 440 40 40" id="dark-action"/><use x="0" y="440" href="#icon" style="--icon-color:#1f78d1"/><view viewBox="0 480 40 40" id="dark-actionSecondary"/><use x="0" y="480" href="#icon" style="--icon-color:#ffffff"/><view viewBox="0 520 40 40" id="dark-positive"/><use x="0" y="520" href="#icon" style="--icon-color:#08b42e"/></svg>