<svg width="40" height="560" fill="none" xmlns="http://www.w3.org/2000/svg"><defs><symbol id="icon"><path fill-rule="evenodd" clip-rule="evenodd" d="M20.0039 23.3599H19.9932C19.1016 23.3599 18.3955 23.2612 17.8965 23.1562C17.3311 23.0371 17.0322 22.9102 17.0322 22.9102L16.4463 26.3525L17.0215 26.4678C17.0215 26.4678 18.5596 26.792 19.9834 26.792H20.0039C21.4375 26.792 22.9648 26.4678 22.9648 26.4678L23.54 26.3525L22.9648 22.9102C22.9648 22.9102 21.9082 23.3599 20.0039 23.3599ZM18.5625 25.6421C18.208 25.6006 17.8936 25.5527 17.6602 25.5156L17.8799 24.2183C18.4238 24.3228 19.1455 24.4062 20.0146 24.4062C20.8828 24.4062 21.5947 24.3228 22.1387 24.2183L22.3584 25.5156C21.8242 25.6099 20.8828 25.7354 19.9932 25.7354C19.5059 25.7354 19.0029 25.6934 18.5625 25.6421Z" fill="var(--icon-color, currentColor)"/><path fill-rule="evenodd" clip-rule="evenodd" d="M26.6172 11.8296C26.7432 12.1646 26.7949 12.3843 26.7949 12.3843C26.7949 12.3843 26.7979 12.395 26.7959 12.4082C26.7949 12.4209 26.79 12.4365 26.7744 12.4468C26.7744 12.562 26.6797 12.6562 26.5645 12.6562C26.5547 12.6562 26.5469 12.6533 26.5391 12.6509C26.5312 12.6484 26.5234 12.6455 26.5127 12.6455L25.6123 12.4258C25.6025 12.7188 25.6025 13.0645 25.6025 13.4307C25.6025 15.5562 25.6992 18.7046 25.7695 21.0161C25.8105 22.3569 25.8428 23.4165 25.8428 23.8311C25.8428 25.4214 25.4248 26.5098 25.2051 27.1899C24.9854 27.8701 24.6191 28.3306 23.834 28.4873C23.46 28.562 22.9502 28.6821 22.3379 28.7876C21.666 28.9028 20.8701 29 19.9941 29H19.9834C18.3096 28.9897 16.9277 28.644 16.1436 28.4873C15.3584 28.3306 14.9922 27.8701 14.7725 27.1899C14.6562 26.8364 14.4854 26.3633 14.3496 25.7612C14.2275 25.2227 14.1348 24.5815 14.1348 23.8311C14.1348 22.7012 14.375 16.7891 14.375 13.4307C14.375 13.1904 14.375 12.9639 14.3721 12.7505C14.3701 12.6387 14.3682 12.5303 14.3643 12.4258L13.4648 12.6455C13.4492 12.6533 13.4395 12.6553 13.4268 12.6558L13.4121 12.6562C13.2969 12.6562 13.2031 12.562 13.2031 12.4468C13.2031 12.4258 13.2139 12.3843 13.2139 12.3843C13.2139 12.3843 13.2275 12.3267 13.2578 12.2256C13.2861 12.1294 13.3301 11.9932 13.3916 11.8296C13.5166 11.4946 13.7471 11.2539 14.0615 11.1284L14.375 11.0137C14.3857 10.731 14.3955 10.4277 14.3955 10.1138C14.3955 8.33496 14.1553 6.29443 14.1553 6.29443C14.1553 3.74121 14.8984 2.81006 15.7773 2.17188L16.583 1.58594C17.127 1.20947 17.7656 1 18.4248 1H21.584C22.0088 1 22.4258 1.0874 22.8135 1.25C23.0273 1.33936 23.2324 1.45215 23.4258 1.58594L24.2422 2.17188C25.1211 2.81006 25.8643 3.74121 25.8643 6.29443C25.8643 6.29443 25.7979 6.85889 25.7344 7.65283C25.6768 8.36816 25.623 9.27051 25.623 10.1138C25.623 10.4277 25.623 10.731 25.6445 11.0137L25.9473 11.1284C26.2617 11.2539 26.4912 11.4946 26.6172 11.8296ZM17.2002 2.44385L16.3945 3.01953C15.7979 3.44824 15.2119 4.05518 15.2012 6.24219C15.2227 6.46191 15.3066 7.24658 15.3691 8.20947C16.415 7.9165 18.1523 7.53955 19.9941 7.53955C21.8457 7.53955 23.5928 7.92676 24.6289 8.21973C24.6719 7.44043 24.7412 6.77734 24.7773 6.43066L24.7969 6.24219C24.7861 4.05518 24.2002 3.44824 23.6035 3.01953L22.7979 2.44385C22.4424 2.18213 22.0234 2.04639 21.5742 2.04639H18.4248C18.1885 2.04639 17.9551 2.08545 17.7344 2.16211C17.5449 2.22852 17.3643 2.32275 17.2002 2.44385ZM23.1748 12.1123L23.9912 9.12988C22.9863 8.87891 21.5107 8.58594 20.0039 8.59619C18.498 8.59619 17.0537 8.86865 16.0596 9.11963L16.8545 12.1123C17.5557 11.9863 18.8535 11.7666 20.0146 11.7666C21.1758 11.7666 22.4844 11.9761 23.1748 12.1123ZM24.2314 26.8862L24.3105 26.6489C24.5303 25.9917 24.8281 25.0962 24.8281 23.8311C24.8281 23.623 24.8193 23.2349 24.8057 22.7217C24.793 22.2539 24.7754 21.6816 24.7549 21.0479C24.6816 18.7354 24.5869 15.5757 24.5869 13.4307C24.5869 13.0537 24.5869 12.7085 24.5977 12.4053L24.6191 11.3799L24.5977 11.0659C24.5869 11.0029 24.5869 10.9297 24.5869 10.8672L23.9072 13.3257L23.4258 13.2212C23.4053 13.2109 21.5215 12.792 20.0039 12.792C18.6455 12.792 16.9922 13.1362 16.6475 13.208L16.583 13.2212L16.0908 13.3364L15.4209 10.8042C15.416 10.8516 15.416 10.8984 15.416 10.9443C15.416 10.9897 15.416 11.0342 15.4111 11.0762L15.3896 11.4004L15.4004 12.4053C15.4111 12.7188 15.4111 13.0645 15.4111 13.4409C15.4111 15.5859 15.3164 18.7461 15.2432 21.0581C15.2012 22.3872 15.1699 23.4438 15.1699 23.8418C15.1699 25.0869 15.4639 25.9678 15.6816 26.624L15.6934 26.6562L15.7666 26.876C15.9238 27.3364 16.0703 27.4199 16.3525 27.4722L16.75 27.5562C17.5137 27.7236 18.6758 27.9644 19.9941 27.9644C21.2656 27.9644 22.3848 27.7339 23.1484 27.5767L23.248 27.5562L23.6455 27.4829C23.9277 27.4307 24.085 27.3467 24.2314 26.8862Z" fill="var(--icon-color, currentColor)"/><path d="M35.959 27H34.9551C34.4502 32.6064 29.7383 37 24 37V38C30.29 38 35.4512 33.1597 35.959 27Z" fill="var(--icon-color, currentColor)"/><path d="M16 38V37C10.2617 37 5.5498 32.6064 5.04492 27H4.04102C4.54883 33.1597 9.70996 38 16 38Z" fill="var(--icon-color, currentColor)"/><path d="M7.05469 27C7.55176 31.5 11.3672 35 16 35V34C11.9209 34 8.55371 30.9463 8.06152 27H7.05469Z" fill="var(--icon-color, currentColor)"/><path d="M10.083 27C10.5596 29.8374 13.0273 32 16 32V31C13.5811 31 11.5625 29.2822 11.0996 27H10.083Z" fill="var(--icon-color, currentColor)"/><path d="M28.9004 27H29.917C29.4404 29.8374 26.9727 32 24 32V31C26.4189 31 28.4375 29.2822 28.9004 27Z" fill="var(--icon-color, currentColor)"/><path d="M24 34V35C28.6328 35 32.4482 31.5 32.9453 27H31.9385C31.4463 30.9463 28.0791 34 24 34Z" fill="var(--icon-color, currentColor)"/></symbol></defs><view viewBox="0 0 40 40" id="light-primary"/><use x="0" y="0" href="#icon" style="--icon-color:#141414"/><view viewBox="0 40 40 40" id="light-secondary"/><use x="0" y="40" href="#icon" style="--icon-color:#707070"/><view viewBox="0 80 40 40" id="light-inverted"/><use x="0" y="80" href="#icon" style="--icon-color:#ffffff"/><view viewBox="0 120 40 40" id="light-alert"/><use x="0" y="120" href="#icon" style="--icon-color:#bf2012"/><view viewBox="0 160 40 40" id="light-action"/><use x="0" y="160" href="#icon" style="--icon-color:#1c6bba"/><view viewBox="0 200 40 40" id="light-actionSecondary"/><use x="0" y="200" href="#icon" style="--icon-color:#1c6bba"/><view viewBox="0 240 40 40" id="light-positive"/><use x="0" y="240" href="#icon" style="--icon-color:#058a22"/><view viewBox="0 280 40 40" id="dark-primary"/><use x="0" y="280" href="#icon" style="--icon-color:#ffffff"/><view viewBox="0 320 40 40" id="dark-secondary"/><use x="0" y="320" href="#icon" style="--icon-color:#a3a3a3"/><view viewBox="0 360 40 40" id="dark-inverted"/><use x="0" y="360" href="#icon" style="--icon-color:#000000"/><view viewBox="0 400 40 40" id="dark-alert"/><use x="0" y="400" href="#icon" style="--icon-color:#ea2c1a"/><view viewBox="0 440 40 40" id="dark-action"/><use x="0" y="440" href="#icon" style="--icon-color:#1f78d1"/><view viewBox="0 480 40 40" id="dark-actionSecondary"/><use x="0" y="480" href="#icon" style="--icon-color:#ffffff"/><view viewBox="0 520 40 40" id="dark-positive"/><use x="0" y="520" href="#icon" style="--icon-color:#08b42e"/></svg>