<svg width="40" height="560" fill="none" xmlns="http://www.w3.org/2000/svg"><defs><symbol id="icon"><path d="M23 34L17 34V35H23V34Z" fill="var(--icon-color, currentColor)"/><path fill-rule="evenodd" clip-rule="evenodd" d="M34 35C34 36.6569 32.6569 38 31 38L9 38C7.34315 38 6 36.6569 6 35L6 5C6 3.34314 7.34315 2 9 2L31 2C32.6569 2 34 3.34315 34 5L34 35ZM31 37L9 37C7.89543 37 7 36.1046 7 35L7 5C7 3.89543 7.89543 3 9 3L31 3C32.1046 3 33 3.89544 33 5L33 35C33 36.1046 32.1046 37 31 37Z" fill="var(--icon-color, currentColor)"/></symbol></defs><view viewBox="0 0 40 40" id="light-primary"/><use x="0" y="0" href="#icon" style="--icon-color:#141414"/><view viewBox="0 40 40 40" id="light-secondary"/><use x="0" y="40" href="#icon" style="--icon-color:#707070"/><view viewBox="0 80 40 40" id="light-inverted"/><use x="0" y="80" href="#icon" style="--icon-color:#ffffff"/><view viewBox="0 120 40 40" id="light-alert"/><use x="0" y="120" href="#icon" style="--icon-color:#bf2012"/><view viewBox="0 160 40 40" id="light-action"/><use x="0" y="160" href="#icon" style="--icon-color:#1c6bba"/><view viewBox="0 200 40 40" id="light-actionSecondary"/><use x="0" y="200" href="#icon" style="--icon-color:#1c6bba"/><view viewBox="0 240 40 40" id="light-positive"/><use x="0" y="240" href="#icon" style="--icon-color:#058a22"/><view viewBox="0 280 40 40" id="dark-primary"/><use x="0" y="280" href="#icon" style="--icon-color:#ffffff"/><view viewBox="0 320 40 40" id="dark-secondary"/><use x="0" y="320" href="#icon" style="--icon-color:#a3a3a3"/><view viewBox="0 360 40 40" id="dark-inverted"/><use x="0" y="360" href="#icon" style="--icon-color:#000000"/><view viewBox="0 400 40 40" id="dark-alert"/><use x="0" y="400" href="#icon" style="--icon-color:#ea2c1a"/><view viewBox="0 440 40 40" id="dark-action"/><use x="0" y="440" href="#icon" style="--icon-color:#1f78d1"/><view viewBox="0 480 40 40" id="dark-actionSecondary"/><use x="0" y="480" href="#icon" style="--icon-color:#ffffff"/><view viewBox="0 520 40 40" id="dark-positive"/><use x="0" y="520" href="#icon" style="--icon-color:#08b42e"/></svg>