<svg width="40" height="560" fill="none" xmlns="http://www.w3.org/2000/svg"><defs><symbol id="icon"><path d="M19.8097 1.10766L19.5 1.50018L19.1903 1.10766L19.5 0.863281L19.8097 1.10766Z" fill="var(--icon-color, currentColor)"/><path d="M32.5 20.2346C32.5 26.4491 27.9745 31.6188 22 32.7638V31.7442C27.4298 30.6148 31.5 25.8821 31.5 20.2346C31.5 18.1301 30.757 15.934 29.6068 13.8021C28.4586 11.6736 26.9213 9.64009 25.3736 7.86964C23.8271 6.10068 22.2791 4.60446 21.1172 3.55017C20.5365 3.02334 20.0531 2.60762 19.7156 2.32421C19.6352 2.25673 19.5631 2.19675 19.5 2.14458C19.4369 2.19675 19.3648 2.25673 19.2844 2.32421C18.9469 2.60762 18.4635 3.02334 17.8829 3.55017C16.7209 4.60446 15.1729 6.10068 13.6264 7.86964C12.0787 9.64009 10.5414 11.6736 9.39317 13.8021C8.24305 15.934 7.5 18.1301 7.5 20.2346C7.5 25.8821 11.5702 30.6148 17 31.7442V32.7638C11.0255 31.6188 6.5 26.4491 6.5 20.2346C6.5 17.9033 7.31945 15.5398 8.51308 13.3273C9.70856 11.1113 11.2963 9.01569 12.8736 7.21148C14.4521 5.40579 16.0291 3.88181 17.2109 2.80958C17.8021 2.27315 18.2953 1.84901 18.6414 1.5584C18.8144 1.41308 18.9508 1.30109 19.0443 1.22509C19.091 1.18709 19.1271 1.15808 19.1517 1.1384L19.1799 1.11591L19.1873 1.10999L19.1903 1.10766C19.1905 1.10751 19.1903 1.10766 19.5 1.50018C19.8097 1.10766 19.8095 1.10751 19.8097 1.10766L19.8106 1.10837L19.8127 1.10999L19.8201 1.11591L19.8483 1.1384C19.8729 1.15808 19.909 1.18709 19.9557 1.22509C20.0492 1.30109 20.1856 1.41308 20.3586 1.5584C20.7047 1.84901 21.1979 2.27315 21.7891 2.80958C22.9709 3.88181 24.5479 5.40579 26.1264 7.21148C27.7037 9.01569 29.2914 11.1113 30.4869 13.3273C31.6805 15.5398 32.5 17.9033 32.5 20.2346Z" fill="var(--icon-color, currentColor)"/><path d="M24.5126 12.1944L20 16.707V25.0002L27.2776 17.7227L27.9805 18.4256L20 26.4061V38.5H19V26.4071L11.0186 18.4256L11.7215 17.7227L19 25.0011V16.7071L14.502 12.2091L15.2091 11.502L19 15.2929V6.5H20V15.2928L23.8055 11.4873L24.5126 12.1944Z" fill="var(--icon-color, currentColor)"/></symbol></defs><view viewBox="0 0 40 40" id="light-primary"/><use x="0" y="0" href="#icon" style="--icon-color:#141414"/><view viewBox="0 40 40 40" id="light-secondary"/><use x="0" y="40" href="#icon" style="--icon-color:#707070"/><view viewBox="0 80 40 40" id="light-inverted"/><use x="0" y="80" href="#icon" style="--icon-color:#ffffff"/><view viewBox="0 120 40 40" id="light-alert"/><use x="0" y="120" href="#icon" style="--icon-color:#bf2012"/><view viewBox="0 160 40 40" id="light-action"/><use x="0" y="160" href="#icon" style="--icon-color:#1c6bba"/><view viewBox="0 200 40 40" id="light-actionSecondary"/><use x="0" y="200" href="#icon" style="--icon-color:#1c6bba"/><view viewBox="0 240 40 40" id="light-positive"/><use x="0" y="240" href="#icon" style="--icon-color:#058a22"/><view viewBox="0 280 40 40" id="dark-primary"/><use x="0" y="280" href="#icon" style="--icon-color:#ffffff"/><view viewBox="0 320 40 40" id="dark-secondary"/><use x="0" y="320" href="#icon" style="--icon-color:#a3a3a3"/><view viewBox="0 360 40 40" id="dark-inverted"/><use x="0" y="360" href="#icon" style="--icon-color:#000000"/><view viewBox="0 400 40 40" id="dark-alert"/><use x="0" y="400" href="#icon" style="--icon-color:#ea2c1a"/><view viewBox="0 440 40 40" id="dark-action"/><use x="0" y="440" href="#icon" style="--icon-color:#1f78d1"/><view viewBox="0 480 40 40" id="dark-actionSecondary"/><use x="0" y="480" href="#icon" style="--icon-color:#ffffff"/><view viewBox="0 520 40 40" id="dark-positive"/><use x="0" y="520" href="#icon" style="--icon-color:#08b42e"/></svg>